<svg width="32" height="32" viewBox="0 0 32 32" fill="none" xmlns="http://www.w3.org/2000/svg">
<path d="M13.3334 16H18.6667" stroke="white" stroke-width="2.66667" stroke-linecap="round" stroke-linejoin="round"/>
<path d="M13.3334 10.6667H18.6667" stroke="white" stroke-width="2.66667" stroke-linecap="round" stroke-linejoin="round"/>
<path d="M18.6667 27.9999V23.9999C18.6667 23.2927 18.3858 22.6144 17.8857 22.1143C17.3856 21.6142 16.7073 21.3333 16 21.3333C15.2928 21.3333 14.6145 21.6142 14.1144 22.1143C13.6143 22.6144 13.3334 23.2927 13.3334 23.9999V27.9999" stroke="white" stroke-width="2.66667" stroke-linecap="round" stroke-linejoin="round"/>
<path d="M7.99996 13.3333H5.33329C4.62605 13.3333 3.94777 13.6142 3.44767 14.1143C2.94758 14.6144 2.66663 15.2927 2.66663 15.9999V25.3333C2.66663 26.0405 2.94758 26.7188 3.44767 27.2189C3.94777 27.719 4.62605 27.9999 5.33329 27.9999H26.6666C27.3739 27.9999 28.0521 27.719 28.5522 27.2189C29.0523 26.7188 29.3333 26.0405 29.3333 25.3333V11.9999C29.3333 11.2927 29.0523 10.6144 28.5522 10.1143C28.0521 9.6142 27.3739 9.33325 26.6666 9.33325H24" stroke="white" stroke-width="2.66667" stroke-linecap="round" stroke-linejoin="round"/>
<path d="M8 28V6.66667C8 5.95942 8.28095 5.28115 8.78105 4.78105C9.28115 4.28095 9.95942 4 10.6667 4H21.3333C22.0406 4 22.7189 4.28095 23.219 4.78105C23.719 5.28115 24 5.95942 24 6.66667V28" stroke="white" stroke-width="2.66667" stroke-linecap="round" stroke-linejoin="round"/>
</svg>
