<svg width="28" height="28" viewBox="0 0 28 28" fill="none" xmlns="http://www.w3.org/2000/svg">
<path d="M18.6667 24.5V22.1667C18.6667 20.929 18.175 19.742 17.2999 18.8668C16.4247 17.9917 15.2377 17.5 14 17.5H7.00004C5.76236 17.5 4.57538 17.9917 3.70021 18.8668C2.82504 19.742 2.33337 20.929 2.33337 22.1667V24.5" stroke="white" stroke-width="2.33333" stroke-linecap="round" stroke-linejoin="round"/>
<path d="M18.6666 3.64929C19.6673 3.90872 20.5536 4.4931 21.1863 5.3107C21.8189 6.1283 22.1622 7.13283 22.1622 8.16663C22.1622 9.20042 21.8189 10.205 21.1863 11.0226C20.5536 11.8402 19.6673 12.4245 18.6666 12.684" stroke="white" stroke-width="2.33333" stroke-linecap="round" stroke-linejoin="round"/>
<path d="M25.6666 24.4999V22.1666C25.6659 21.1326 25.3217 20.1282 24.6882 19.311C24.0547 18.4938 23.1678 17.9101 22.1666 17.6516" stroke="white" stroke-width="2.33333" stroke-linecap="round" stroke-linejoin="round"/>
<path d="M10.5 12.8333C13.0774 12.8333 15.1667 10.744 15.1667 8.16667C15.1667 5.58934 13.0774 3.5 10.5 3.5C7.92271 3.5 5.83337 5.58934 5.83337 8.16667C5.83337 10.744 7.92271 12.8333 10.5 12.8333Z" stroke="white" stroke-width="2.33333" stroke-linecap="round" stroke-linejoin="round"/>
</svg>
