<svg width="32" height="32" viewBox="0 0 32 32" fill="none" xmlns="http://www.w3.org/2000/svg">
<path d="M21.3333 26.6667V5.33341C21.3333 4.62617 21.0524 3.94789 20.5523 3.4478C20.0522 2.9477 19.3739 2.66675 18.6667 2.66675H13.3333C12.6261 2.66675 11.9478 2.9477 11.4477 3.4478C10.9476 3.94789 10.6667 4.62617 10.6667 5.33341V26.6667" stroke="white" stroke-width="2.66667" stroke-linecap="round" stroke-linejoin="round"/>
<path d="M26.6667 8H5.33332C3.86056 8 2.66666 9.19391 2.66666 10.6667V24C2.66666 25.4728 3.86056 26.6667 5.33332 26.6667H26.6667C28.1394 26.6667 29.3333 25.4728 29.3333 24V10.6667C29.3333 9.19391 28.1394 8 26.6667 8Z" stroke="white" stroke-width="2.66667" stroke-linecap="round" stroke-linejoin="round"/>
</svg>
