<svg width="32" height="32" viewBox="0 0 32 32" fill="none" xmlns="http://www.w3.org/2000/svg">
<path d="M26.6667 10.6665H5.33333C4.59695 10.6665 4 11.2635 4 11.9998V14.6665C4 15.4029 4.59695 15.9998 5.33333 15.9998H26.6667C27.403 15.9998 28 15.4029 28 14.6665V11.9998C28 11.2635 27.403 10.6665 26.6667 10.6665Z" stroke="#FF8904" stroke-width="2.66667" stroke-linecap="round" stroke-linejoin="round"/>
<path d="M16 10.6665V27.9998" stroke="#FF8904" stroke-width="2.66667" stroke-linecap="round" stroke-linejoin="round"/>
<path d="M25.3333 16V25.3333C25.3333 26.0406 25.0523 26.7189 24.5522 27.219C24.0521 27.719 23.3739 28 22.6666 28H9.33329C8.62605 28 7.94777 27.719 7.44767 27.219C6.94758 26.7189 6.66663 26.0406 6.66663 25.3333V16" stroke="#FF8904" stroke-width="2.66667" stroke-linecap="round" stroke-linejoin="round"/>
<path d="M9.99996 10.6668C9.1159 10.6668 8.26806 10.3156 7.64294 9.69045C7.01782 9.06533 6.66663 8.21748 6.66663 7.33343C6.66663 6.44937 7.01782 5.60153 7.64294 4.97641C8.26806 4.35128 9.1159 4.00009 9.99996 4.00009C11.2862 3.97768 12.5467 4.60177 13.6169 5.79098C14.6872 6.98018 15.5177 8.6793 16 10.6668C16.4823 8.6793 17.3127 6.98018 18.383 5.79098C19.4533 4.60177 20.7137 3.97768 22 4.00009C22.884 4.00009 23.7319 4.35128 24.357 4.97641C24.9821 5.60153 25.3333 6.44937 25.3333 7.33343C25.3333 8.21748 24.9821 9.06533 24.357 9.69045C23.7319 10.3156 22.884 10.6668 22 10.6668" stroke="#FF8904" stroke-width="2.66667" stroke-linecap="round" stroke-linejoin="round"/>
</svg>
