<svg width="32" height="32" viewBox="0 0 32 32" fill="none" xmlns="http://www.w3.org/2000/svg">
<path d="M25.3334 22.6666H28C28.8 22.6666 29.3334 22.1333 29.3334 21.3333V17.3333C29.3334 16.1333 28.4 15.0666 27.3334 14.7999C24.9334 14.1333 21.3334 13.3333 21.3334 13.3333C21.3334 13.3333 19.6 11.4666 18.4 10.2666C17.7334 9.73325 16.9334 9.33325 16 9.33325H6.66669C5.86669 9.33325 5.20002 9.86659 4.80002 10.5333L2.93335 14.3999C2.75679 14.9149 2.66669 15.4555 2.66669 15.9999V21.3333C2.66669 22.1333 3.20002 22.6666 4.00002 22.6666H6.66669" stroke="white" stroke-width="2.66667" stroke-linecap="round" stroke-linejoin="round"/>
<path d="M9.33335 25.3333C10.8061 25.3333 12 24.1394 12 22.6667C12 21.1939 10.8061 20 9.33335 20C7.86059 20 6.66669 21.1939 6.66669 22.6667C6.66669 24.1394 7.86059 25.3333 9.33335 25.3333Z" stroke="white" stroke-width="2.66667" stroke-linecap="round" stroke-linejoin="round"/>
<path d="M12 22.6667H20" stroke="white" stroke-width="2.66667" stroke-linecap="round" stroke-linejoin="round"/>
<path d="M22.6667 25.3333C24.1394 25.3333 25.3333 24.1394 25.3333 22.6667C25.3333 21.1939 24.1394 20 22.6667 20C21.1939 20 20 21.1939 20 22.6667C20 24.1394 21.1939 25.3333 22.6667 25.3333Z" stroke="white" stroke-width="2.66667" stroke-linecap="round" stroke-linejoin="round"/>
</svg>
